<svg width="16" height="16" viewBox="0 0 16 16" fill="none" xmlns="http://www.w3.org/2000/svg">
<g clip-path="url(#clip0_514_3588)">
<path d="M0 0H16V16H0V0Z" fill="#808080" fill-opacity="0.00"/>
<path d="M7.07001 2.05C6.86376 2.05627 6.66456 2.12652 6.5 2.251L3 5.001H1C0.446 5.001 0 5.447 0 6.001V10.001C0 10.555 0.446 11.001 1 11.001H3L6.5 13.751C7 14.144 8 14.001 8 13.001V3.001C8 2.314 7.52801 2.031 7.07001 2.05Z" fill="#232323"/>
<path opacity="0.35" d="M9 5.62L11 4.995C12 6.995 12 8.995 11 10.995L9 10.37C10 8.37 10 7.62 9 5.62Z" fill="#232323"/>
<path opacity="0.35" d="M12 3.94002L14 3.00201C16 6.00201 16 10.002 14 13.002L12 12.065C14 9.06502 14 6.94002 12 3.94002Z" fill="#232323"/>
</g>
<defs>
<clipPath id="clip0_514_3588">
<rect width="16" height="16" fill="white"/>
</clipPath>
</defs>
</svg>
