<svg viewBox="0 0 16 16" fill="none" xmlns="http://www.w3.org/2000/svg">
  <g stroke-width="0"></g>
  <g stroke-linecap="round" stroke-linejoin="round"></g>
  <g>
    <path d="M13.8137 12.16L13.1871 11.5333C13.5137 11.04 13.7071 10.4467 13.7071 9.80667C13.7071 8.07333 12.3004 6.66667 10.5671 6.66667C8.83375 6.66667 7.42708 8.07333 7.42708 9.80667C7.42708 11.54 8.83375 12.9467 10.5671 12.9467C11.2071 12.9467 11.8004 12.7533 12.2937 12.4267L12.9204 13.0533C13.0471 13.18 13.2071 13.24 13.3737 13.24C13.5404 13.24 13.7004 13.18 13.8271 13.0533C14.0604 12.8133 14.0604 12.4133 13.8137 12.16Z" fill="#232323"></path>
    <path d="M13.0533 2.68V4.16C13.0533 4.7 12.7199 5.37333 12.3866 5.71333L12.2666 5.82C12.1733 5.90667 12.0333 5.92667 11.9133 5.88667C11.7799 5.84 11.6466 5.80667 11.5133 5.77333C11.2199 5.7 10.9066 5.66667 10.5866 5.66667C8.28658 5.66667 6.41992 7.53333 6.41992 9.83333C6.41992 10.5933 6.62658 11.34 7.01992 11.98C7.35325 12.54 7.81992 13.0067 8.32658 13.32C8.47992 13.42 8.53992 13.6333 8.40658 13.7533C8.35992 13.7933 8.31325 13.8267 8.26658 13.86L7.33325 14.4667C6.46658 15.0067 5.27325 14.4 5.27325 13.32V9.75333C5.27325 9.28 5.00658 8.67333 4.73992 8.34L2.21325 5.64667C1.87992 5.30667 1.61325 4.7 1.61325 4.3V2.74667C1.61325 1.94 2.21325 1.33333 2.93992 1.33333H11.7266C12.4533 1.33333 13.0533 1.94 13.0533 2.68Z" fill="#232323"></path>
  </g>
</svg>
